<svg version="1.1" xmlns="http://www.w3.org/2000/svg" xmlns:xlink="http://www.w3.org/1999/xlink" width="1961" height="3248"><defs/><g><g/><g/><g/><g/><g/><g/><g/><g/><g/><g/><g/><g/><g/><g/><g/><g/><g/><g/><g/><g/><g/><g/><g/><g/><g/><g/><g/><g/><g/><g/><g/><g/><g/><g/><g/><g/><g/><g/><g/><g/><g/><g/><g/><g/><g/><g/><g/><g/><g/><g/><g/><g/><g/><g/><g/><g/><g/><g/><g/><g/><g/><g/><g/><g/><g/><g/><g/><g/><g/><g/><g/><g/><g/><g/><g/><g/><g><rect fill="white" stroke="none" x="0" y="0" width="1961" height="3248"/></g><g><text fill="black" stroke="none" font-family="sans-serif" font-size="16.5pt" font-style="normal" font-weight="normal" text-decoration="normal" x="506.2496217289844" y="67.8539214" text-anchor="start" dominant-baseline="alphabetic" xml:space="preserve">Diagram korzystania z oprogramowania wersjonowania kodu oraz GitLab'a i Visual Studio - UAIM</text></g><g/><g><path fill="none" stroke="black" paint-order="fill stroke markers" d=" M 189.1821454965625 164.13109654200002 L 189.1821454965625 3133.235444902044" stroke-miterlimit="10" stroke-width="1.2565541" stroke-dasharray="11.598960923076923,5.0262164"/><path fill="none" stroke="black" paint-order="fill stroke markers" d=" M 539.9749024684374 164.13109654200002 L 539.9749024684374 3133.235444902044" stroke-miterlimit="10" stroke-width="1.2565541" stroke-dasharray="11.598960923076923,5.0262164"/><path fill="none" stroke="black" paint-order="fill stroke markers" d=" M 803.4251229418749 164.13109654200002 L 803.4251229418749 3133.235444902044" stroke-miterlimit="10" stroke-width="1.2565541" stroke-dasharray="11.598960923076923,5.0262164"/><path fill="none" stroke="black" paint-order="fill stroke markers" d=" M 1321.1903835758592 164.13109654200002 L 1321.1903835758592 3133.235444902044" stroke-miterlimit="10" stroke-width="1.2565541" stroke-dasharray="11.598960923076923,5.0262164"/><path fill="none" stroke="black" paint-order="fill stroke markers" d=" M 1870.3831829211717 164.13109654200002 L 1870.3831829211717 3133.235444902044" stroke-miterlimit="10" stroke-width="1.2565541" stroke-dasharray="11.598960923076923,5.0262164"/></g><g><g><path fill="white" stroke="black" paint-order="fill stroke markers" d=" M 197.7769755405625 100.34841042600002 A 8.594830044 8.594830044 0 1 1 197.77697124314784 100.33981559738848 M 189.1821454965625 108.94324047 L 189.1821454965625 127.339192494 M 178.3255180725625 115.57784611800001 L 200.0387729205625 115.57784611800001 M 189.1821454965625 127.339192494 L 178.3255180725625 144.528852582 M 189.1821454965625 127.339192494 L 200.0387729205625 144.528852582" stroke-miterlimit="10" stroke-width="2.5633703640000003" stroke-dasharray=""/></g><g><text fill="black" stroke="none" font-family="sans-serif" font-size="11pt" font-style="normal" font-weight="normal" text-decoration="normal" x="128.48895396824219" y="159.607501782" text-anchor="start" dominant-baseline="alphabetic" xml:space="preserve">Menadżer projektu</text></g><g><g/><text fill="black" stroke="none" font-family="&quot;FontAwesome&quot;" font-size="44pt" font-style="normal" font-weight="normal" text-decoration="normal" x="522.3178818995898" y="139.502636182" text-anchor="start" dominant-baseline="alphabetic" xml:space="preserve">﬏</text></g><g><text fill="black" stroke="none" font-family="sans-serif" font-size="11pt" font-style="normal" font-weight="normal" text-decoration="normal" x="462.29967816423823" y="159.607501782" text-anchor="start" dominant-baseline="alphabetic" xml:space="preserve">Visual Studio managera</text></g><g><path fill="white" stroke="black" paint-order="fill stroke markers" d=" M 812.0199529858749 100.34841042600002 A 8.594830044 8.594830044 0 1 1 812.0199486884602 100.33981559738848 M 803.4251229418749 108.94324047 L 803.4251229418749 127.339192494 M 792.5684955178749 115.57784611800001 L 814.2817503658748 115.57784611800001 M 803.4251229418749 127.339192494 L 792.5684955178749 144.528852582 M 803.4251229418749 127.339192494 L 814.2817503658748 144.528852582" stroke-miterlimit="10" stroke-width="2.5633703640000003" stroke-dasharray=""/></g><g><text fill="black" stroke="none" font-family="sans-serif" font-size="11pt" font-style="normal" font-weight="normal" text-decoration="normal" x="735.8152978075975" y="159.607501782" text-anchor="start" dominant-baseline="alphabetic" xml:space="preserve">Programista projektu</text></g><g><g/><text fill="black" stroke="none" font-family="&quot;FontAwesome&quot;" font-size="44pt" font-style="normal" font-weight="normal" text-decoration="normal" x="1303.5333630070115" y="139.502636182" text-anchor="start" dominant-baseline="alphabetic" xml:space="preserve">﬏</text></g><g><text fill="black" stroke="none" font-family="sans-serif" font-size="11pt" font-style="normal" font-weight="normal" text-decoration="normal" x="1238.2337566837693" y="159.607501782" text-anchor="start" dominant-baseline="alphabetic" xml:space="preserve">Visual Studio programisty</text></g><g><g/><text fill="black" stroke="none" font-family="&quot;FontAwesome&quot;" font-size="44pt" font-style="normal" font-weight="normal" text-decoration="normal" x="1841.0550884387499" y="139.502636182" text-anchor="start" dominant-baseline="alphabetic" xml:space="preserve"></text></g><g><text fill="black" stroke="none" font-family="sans-serif" font-size="11pt" font-style="normal" font-weight="normal" text-decoration="normal" x="1810.9137310168749" y="159.607501782" text-anchor="start" dominant-baseline="alphabetic" xml:space="preserve">Uczelniany GitLab</text></g><g><path fill="white" stroke="black" paint-order="fill stroke markers" d=" M 197.7769755405625 3162.714204088044 A 8.594830044 8.594830044 0 1 1 197.77697124314784 3162.7056092594325 M 189.1821454965625 3171.309034132044 L 189.1821454965625 3189.704986156044 M 178.3255180725625 3177.943639780044 L 200.0387729205625 3177.943639780044 M 189.1821454965625 3189.704986156044 L 178.3255180725625 3206.894646244044 M 189.1821454965625 3189.704986156044 L 200.0387729205625 3206.894646244044" stroke-miterlimit="10" stroke-width="2.5633703640000003" stroke-dasharray=""/></g><g><text fill="black" stroke="none" font-family="sans-serif" font-size="11pt" font-style="normal" font-weight="normal" text-decoration="normal" x="128.48895396824219" y="3148.3140941020442" text-anchor="start" dominant-baseline="alphabetic" xml:space="preserve">Menadżer projektu</text></g><g><g/><text fill="black" stroke="none" font-family="&quot;FontAwesome&quot;" font-size="44pt" font-style="normal" font-weight="normal" text-decoration="normal" x="522.3178818995898" y="3192.863905262044" text-anchor="start" dominant-baseline="alphabetic" xml:space="preserve">﬏</text></g><g><text fill="black" stroke="none" font-family="sans-serif" font-size="11pt" font-style="normal" font-weight="normal" text-decoration="normal" x="462.29967816423823" y="3148.3140941020442" text-anchor="start" dominant-baseline="alphabetic" xml:space="preserve">Visual Studio managera</text></g><g><path fill="white" stroke="black" paint-order="fill stroke markers" d=" M 812.0199529858749 3162.714204088044 A 8.594830044 8.594830044 0 1 1 812.0199486884602 3162.7056092594325 M 803.4251229418749 3171.309034132044 L 803.4251229418749 3189.704986156044 M 792.5684955178749 3177.943639780044 L 814.2817503658748 3177.943639780044 M 803.4251229418749 3189.704986156044 L 792.5684955178749 3206.894646244044 M 803.4251229418749 3189.704986156044 L 814.2817503658748 3206.894646244044" stroke-miterlimit="10" stroke-width="2.5633703640000003" stroke-dasharray=""/></g><g><text fill="black" stroke="none" font-family="sans-serif" font-size="11pt" font-style="normal" font-weight="normal" text-decoration="normal" x="735.8152978075975" y="3148.3140941020442" text-anchor="start" dominant-baseline="alphabetic" xml:space="preserve">Programista projektu</text></g><g><g/><text fill="black" stroke="none" font-family="&quot;FontAwesome&quot;" font-size="44pt" font-style="normal" font-weight="normal" text-decoration="normal" x="1303.5333630070115" y="3192.863905262044" text-anchor="start" dominant-baseline="alphabetic" xml:space="preserve">﬏</text></g><g><text fill="black" stroke="none" font-family="sans-serif" font-size="11pt" font-style="normal" font-weight="normal" text-decoration="normal" x="1238.2337566837693" y="3148.3140941020442" text-anchor="start" dominant-baseline="alphabetic" xml:space="preserve">Visual Studio programisty</text></g><g><g/><text fill="black" stroke="none" font-family="&quot;FontAwesome&quot;" font-size="44pt" font-style="normal" font-weight="normal" text-decoration="normal" x="1841.0550884387499" y="3210.863905262044" text-anchor="start" dominant-baseline="alphabetic" xml:space="preserve"></text></g><g><text fill="black" stroke="none" font-family="sans-serif" font-size="11pt" font-style="normal" font-weight="normal" text-decoration="normal" x="1810.9137310168749" y="3148.3140941020442" text-anchor="start" dominant-baseline="alphabetic" xml:space="preserve">Uczelniany GitLab</text></g></g><g><path fill="white" stroke="black" paint-order="fill stroke markers" d=" M 532.4355778684375 742.9236826607286 L 547.5142270684374 742.9236826607286 L 547.5142270684374 1228.1832600897965 L 532.4355778684375 1228.1832600897965 L 532.4355778684375 742.9236826607286" stroke-miterlimit="10" stroke-width="1.2565541" stroke-dasharray=""/><path fill="white" stroke="black" paint-order="fill stroke markers" d=" M 1862.8438583211716 802.1259376349022 L 1877.9225075211718 802.1259376349022 L 1877.9225075211718 1155.8057439297966 L 1862.8438583211716 1155.8057439297966 L 1862.8438583211716 802.1259376349022" stroke-miterlimit="10" stroke-width="1.2565541" stroke-dasharray=""/><path fill="white" stroke="black" paint-order="fill stroke markers" d=" M 1870.3831829211717 831.2640505797149 L 1885.461832121172 831.2640505797149 L 1885.461832121172 1095.4998989921442 L 1870.3831829211717 1095.4998989921442 L 1870.3831829211717 831.2640505797149" stroke-miterlimit="10" stroke-width="1.2565541" stroke-dasharray=""/><path fill="white" stroke="black" paint-order="fill stroke markers" d=" M 1313.651058975859 1487.6036308182788 L 1328.7297081758593 1487.6036308182788 L 1328.7297081758593 2102.004652001951 L 1313.651058975859 2102.004652001951 L 1313.651058975859 1487.6036308182788" stroke-miterlimit="10" stroke-width="1.2565541" stroke-dasharray=""/><path fill="white" stroke="black" paint-order="fill stroke markers" d=" M 1862.8438583211716 1548.7891992637403 L 1877.9225075211718 1548.7891992637403 L 1877.9225075211718 1908.9979422419508 L 1862.8438583211716 1908.9979422419508 L 1862.8438583211716 1548.7891992637403" stroke-miterlimit="10" stroke-width="1.2565541" stroke-dasharray=""/><path fill="white" stroke="black" paint-order="fill stroke markers" d=" M 1870.3831829211717 1580.8068864287075 L 1885.461832121172 1580.8068864287075 L 1885.461832121172 1856.2226700419508 L 1870.3831829211717 1856.2226700419508 L 1870.3831829211717 1580.8068864287075" stroke-miterlimit="10" stroke-width="1.2565541" stroke-dasharray=""/><path fill="white" stroke="black" paint-order="fill stroke markers" d=" M 1313.651058975859 2581.505696561953 L 1328.7297081758593 2581.505696561953 L 1328.7297081758593 3003.5590617820435 L 1313.651058975859 3003.5590617820435 L 1313.651058975859 2581.505696561953" stroke-miterlimit="10" stroke-width="1.2565541" stroke-dasharray=""/><path fill="white" stroke="black" paint-order="fill stroke markers" d=" M 1862.8438583211716 2643.49191856419 L 1877.9225075211718 2643.49191856419 L 1877.9225075211718 2931.1815456220434 L 1862.8438583211716 2931.1815456220434 L 1862.8438583211716 2643.49191856419" stroke-miterlimit="10" stroke-width="1.2565541" stroke-dasharray=""/><path fill="white" stroke="black" paint-order="fill stroke markers" d=" M 1870.3831829211717 2675.5096057291576 L 1885.461832121172 2675.5096057291576 L 1885.461832121172 2866.477581393127 L 1870.3831829211717 2866.477581393127 L 1870.3831829211717 2675.5096057291576" stroke-miterlimit="10" stroke-width="1.2565541" stroke-dasharray=""/><g><g/><g/><path fill="none" stroke="black" paint-order="fill stroke markers" d=" M 7.5393246000000005 7.5393246000000005 L 1953.978473545469 7.5393246000000005 L 1953.978473545469 3240.9723934360436 L 7.5393246000000005 3240.9723934360436 L 7.5393246000000005 7.5393246000000005 Z" stroke-miterlimit="10" stroke-width="1.2565541" stroke-dasharray=""/><path fill="white" stroke="black" paint-order="fill stroke markers" d=" M 7.5393246000000005 7.5393246000000005 L 7.5393246000000005 28.64943348 L 185.9265576923828 28.64943348 L 196.4816121323828 18.09437904 L 196.4816121323828 7.5393246000000005 L 7.5393246000000005 7.5393246000000005" stroke-miterlimit="10" stroke-width="1.2565541" stroke-dasharray=""/><text fill="black" stroke="none" font-family="sans-serif" font-size="11pt" font-style="normal" font-weight="bold" text-decoration="normal" x="22.6179738" y="21.86404134" text-anchor="start" dominant-baseline="alphabetic" xml:space="preserve">sd</text><text fill="black" stroke="none" font-family="sans-serif" font-size="11pt" font-style="normal" font-weight="normal" text-decoration="normal" x="43.79367875605469" y="21.86404134" text-anchor="start" dominant-baseline="alphabetic" xml:space="preserve">UAIM_Git_Diagram</text></g><g><g><rect fill="white" stroke="none" x="49.508231540000004" y="194.288394942" width="121.8308457365625" height="19.602243960000003"/></g><text fill="black" stroke="none" font-family="sans-serif" font-size="11pt" font-style="normal" font-weight="normal" text-decoration="normal" x="51.77002892" y="207.859179222" text-anchor="start" dominant-baseline="alphabetic" xml:space="preserve">Wpada na pomysł</text></g><g><path fill="none" stroke="black" paint-order="fill stroke markers" d=" M 7.5393246000000005 213.890638902 L 176.7673909885625 213.890638902" stroke-miterlimit="10" stroke-width="1.2565541" stroke-dasharray=""/><g transform="translate(189.1821454965625,213.890638902) translate(-189.1821454965625,-213.890638902)"><path fill="black" stroke="none" paint-order="stroke fill markers" d=" M 176.6166044965625 207.607868402 L 189.1821454965625 213.890638902 L 176.6166044965625 220.173409402 Z"/></g></g><path fill="none" stroke="black" paint-order="fill stroke markers" d=" M 7.5393246000000005 248.82284288200003 L 1953.4606754 248.82284288200003 M 7.5393246000000005 253.84905928200004 L 1953.4606754 253.84905928200004 M 7.5393246000000005 258.87527568200005 L 1953.4606754 258.87527568200005" stroke-miterlimit="10" stroke-width="1.2565541" stroke-dasharray=""/><path fill="white" stroke="black" paint-order="fill stroke markers" d=" M 807.0915665350391 236.50861270200002 L 1153.908433464961 236.50861270200002 L 1153.908433464961 271.18950586200003 L 807.0915665350391 271.18950586200003 Z" stroke-miterlimit="10" stroke-width="1.2565541" stroke-dasharray=""/><g><text fill="black" stroke="none" font-family="sans-serif" font-size="11pt" font-style="normal" font-weight="normal" text-decoration="normal" x="828.2016754150391" y="257.61872158200003" text-anchor="start" dominant-baseline="alphabetic" xml:space="preserve"> </text><text fill="black" stroke="none" font-family="sans-serif" font-size="11pt" font-style="normal" font-weight="bold" text-decoration="normal" x="832.2736511230469" y="257.61872158200003" text-anchor="start" dominant-baseline="alphabetic" xml:space="preserve">Stworzenie repozytorium przez menadżera</text><text fill="black" stroke="none" font-family="sans-serif" font-size="11pt" font-style="normal" font-weight="normal" text-decoration="normal" x="1128.7263488769531" y="257.61872158200003" text-anchor="start" dominant-baseline="alphabetic" xml:space="preserve"> </text></g><g><g><rect fill="white" stroke="none" x="880.4681629714453" y="293.80747966200005" width="298.62900247484373" height="19.602243960000003"/></g><text fill="black" stroke="none" font-family="sans-serif" font-size="11pt" font-style="normal" font-weight="normal" text-decoration="normal" x="882.7299603514452" y="307.3782639420001" text-anchor="start" dominant-baseline="alphabetic" xml:space="preserve">Prośba o utworzenie odległego repozytorium </text></g><g><path fill="none" stroke="black" paint-order="fill stroke markers" d=" M 189.1821454965625 300.9688983181526 L 1857.9704252791448 330.9035373051231" stroke-miterlimit="10" stroke-width="1.2565541" stroke-dasharray=""/><g transform="translate(1870.3831829211717,331.1261967181526) rotate(1.0276585547217683,0,0) translate(-1870.3831829211717,-331.1261967181526)"><path fill="black" stroke="none" paint-order="stroke fill markers" d=" M 1857.8176419211718 324.84342621815256 L 1870.3831829211717 331.1261967181526 L 1857.8176419211718 337.4089672181526 Z"/><g transform="rotate(-1.0276585547217683,0,0)"/></g></g><g><g><rect fill="white" stroke="none" x="935.0784306106054" y="353.74417051815254" width="189.40846719652345" height="19.602243960000003"/></g><text fill="black" stroke="none" font-family="sans-serif" font-size="11pt" font-style="normal" font-weight="normal" text-decoration="normal" x="937.3402279906054" y="367.3149547981526" text-anchor="start" dominant-baseline="alphabetic" xml:space="preserve">Dwieście jeden - stworzyłem</text></g><g><path fill="none" stroke="black" paint-order="fill stroke markers" d=" M 1870.3831829211717 359.9259929807286 L 201.59490313858933 389.86063196769913" stroke-miterlimit="10" stroke-width="1.2565541" stroke-dasharray="6.03145968"/><g transform="translate(189.1821454965625,390.0832913807286) rotate(-1.0276585547217683,0,0) translate(-189.1821454965625,-390.0832913807286)"><path fill="black" stroke="none" paint-order="stroke fill markers" d=" M 201.7476864965625 383.8005208807286 L 189.1821454965625 390.0832913807286 L 201.7476864965625 396.36606188072864 Z"/><g transform="rotate(1.0276585547217683,0,0)"/></g></g><g><g><rect fill="white" stroke="none" x="210.79487601656248" y="412.7012651807286" width="307.567295931875" height="19.602243960000003"/></g><text fill="black" stroke="none" font-family="sans-serif" font-size="11pt" font-style="normal" font-weight="normal" text-decoration="normal" x="213.05667339656247" y="426.2720494607287" text-anchor="start" dominant-baseline="alphabetic" xml:space="preserve">Prośba o stowrzenie pobliskiego repozytorium </text></g><g><path fill="none" stroke="black" paint-order="fill stroke markers" d=" M 189.1821454965625 432.30350914072864 L 527.5601479604375 432.30350914072864" stroke-miterlimit="10" stroke-width="1.2565541" stroke-dasharray=""/><g transform="translate(539.9749024684374,432.30350914072864) translate(-539.9749024684374,-432.30350914072864)"><path fill="black" stroke="none" paint-order="stroke fill markers" d=" M 527.4093614684374 426.0207386407286 L 539.9749024684374 432.30350914072864 L 527.4093614684374 438.58627964072866 Z"/></g></g><g><g><rect fill="white" stroke="none" x="246.23679343599608" y="454.92148294072865" width="236.68346109300782" height="19.602243960000003"/></g><text fill="black" stroke="none" font-family="sans-serif" font-size="11pt" font-style="normal" font-weight="normal" text-decoration="normal" x="248.49859081599607" y="468.49226722072865" text-anchor="start" dominant-baseline="alphabetic" xml:space="preserve">Utworzono pobliskie repozytoroium </text></g><g><path fill="none" stroke="black" paint-order="fill stroke markers" d=" M 539.9749024684374 474.52372690072866 L 201.59690000456249 474.52372690072866" stroke-miterlimit="10" stroke-width="1.2565541" stroke-dasharray="6.03145968"/><g transform="translate(189.1821454965625,474.52372690072866) translate(-189.1821454965625,-474.52372690072866)"><path fill="black" stroke="none" paint-order="stroke fill markers" d=" M 201.7476864965625 468.24095640072863 L 189.1821454965625 474.52372690072866 L 201.7476864965625 480.8064974007287 Z"/></g></g><path fill="none" stroke="black" paint-order="fill stroke markers" d=" M 7.5393246000000005 509.45593088072866 L 1953.4606754 509.45593088072866 M 7.5393246000000005 514.4821472807287 L 1953.4606754 514.4821472807287 M 7.5393246000000005 519.5083636807286 L 1953.4606754 519.5083636807286" stroke-miterlimit="10" stroke-width="1.2565541" stroke-dasharray=""/><path fill="white" stroke="black" paint-order="fill stroke markers" d=" M 856.749624701543 497.14170070072873 L 1104.2503752984571 497.14170070072873 L 1104.2503752984571 531.8225938607287 L 856.749624701543 531.8225938607287 Z" stroke-miterlimit="10" stroke-width="1.2565541" stroke-dasharray=""/><g><text fill="black" stroke="none" font-family="sans-serif" font-size="11pt" font-style="normal" font-weight="normal" text-decoration="normal" x="877.859733581543" y="518.2518095807287" text-anchor="start" dominant-baseline="alphabetic" xml:space="preserve"> </text><text fill="black" stroke="none" font-family="sans-serif" font-size="11pt" font-style="normal" font-weight="bold" text-decoration="normal" x="881.9317092895508" y="518.2518095807287" text-anchor="start" dominant-baseline="alphabetic" xml:space="preserve">Pierwsze zmiany menadżera</text><text fill="black" stroke="none" font-family="sans-serif" font-size="11pt" font-style="normal" font-weight="normal" text-decoration="normal" x="1079.0682907104492" y="518.2518095807287" text-anchor="start" dominant-baseline="alphabetic" xml:space="preserve"> </text></g><g><g><rect fill="white" stroke="none" x="271.906700052207" y="554.4405676607287" width="185.34364786058595" height="19.602243960000003"/></g><text fill="black" stroke="none" font-family="sans-serif" font-size="11pt" font-style="normal" font-weight="normal" text-decoration="normal" x="274.168497432207" y="568.0113519407287" text-anchor="start" dominant-baseline="alphabetic" xml:space="preserve">Wprowadź zmiany w kodzie</text></g><g><path fill="none" stroke="black" paint-order="fill stroke markers" d=" M 189.1821454965625 574.0428116207287 L 527.5601479604375 574.0428116207287" stroke-miterlimit="10" stroke-width="1.2565541" stroke-dasharray=""/><g transform="translate(539.9749024684374,574.0428116207287) translate(-539.9749024684374,-574.0428116207287)"><path fill="black" stroke="none" paint-order="stroke fill markers" d=" M 527.4093614684374 567.7600411207287 L 539.9749024684374 574.0428116207287 L 527.4093614684374 580.3255821207287 Z"/></g></g><g><g><rect fill="white" stroke="none" x="289.0175856723242" y="596.6607854207286" width="151.12187662035157" height="19.602243960000003"/></g><text fill="black" stroke="none" font-family="sans-serif" font-size="11pt" font-style="normal" font-weight="normal" text-decoration="normal" x="291.2793830523242" y="610.2315697007286" text-anchor="start" dominant-baseline="alphabetic" xml:space="preserve">Wprowadziłem zmiany</text></g><g><path fill="none" stroke="black" paint-order="fill stroke markers" d=" M 539.9749024684374 616.2630293807287 L 201.59690000456249 616.2630293807287" stroke-miterlimit="10" stroke-width="1.2565541" stroke-dasharray="6.03145968"/><g transform="translate(189.1821454965625,616.2630293807287) translate(-189.1821454965625,-616.2630293807287)"><path fill="black" stroke="none" paint-order="stroke fill markers" d=" M 201.7476864965625 609.9802588807287 L 189.1821454965625 616.2630293807287 L 201.7476864965625 622.5457998807286 Z"/></g></g><g><g><rect fill="white" stroke="none" x="305.3054885043554" y="638.8810031807286" width="118.54607095628906" height="19.602243960000003"/></g><text fill="black" stroke="none" font-family="sans-serif" font-size="11pt" font-style="normal" font-weight="normal" text-decoration="normal" x="307.56728588435544" y="652.4517874607286" text-anchor="start" dominant-baseline="alphabetic" xml:space="preserve">Zatwierdź zmiany</text></g><g><path fill="none" stroke="black" paint-order="fill stroke markers" d=" M 189.1821454965625 658.4832471407286 L 527.5601479604375 658.4832471407286" stroke-miterlimit="10" stroke-width="1.2565541" stroke-dasharray=""/><g transform="translate(539.9749024684374,658.4832471407286) translate(-539.9749024684374,-658.4832471407286)"><path fill="black" stroke="none" paint-order="stroke fill markers" d=" M 527.4093614684374 652.2004766407287 L 539.9749024684374 658.4832471407286 L 527.4093614684374 664.7660176407286 Z"/></g></g><g><g><rect fill="white" stroke="none" x="291.8693999423437" y="681.1012209407286" width="145.4182480803125" height="19.602243960000003"/></g><text fill="black" stroke="none" font-family="sans-serif" font-size="11pt" font-style="normal" font-weight="normal" text-decoration="normal" x="294.1311973223437" y="694.6720052207286" text-anchor="start" dominant-baseline="alphabetic" xml:space="preserve">Zatwierdziłem zmiany</text></g><g><path fill="none" stroke="black" paint-order="fill stroke markers" d=" M 539.9749024684374 700.7034649007286 L 201.59690000456249 700.7034649007286" stroke-miterlimit="10" stroke-width="1.2565541" stroke-dasharray="6.03145968"/><g transform="translate(189.1821454965625,700.7034649007286) translate(-189.1821454965625,-700.7034649007286)"><path fill="black" stroke="none" paint-order="stroke fill markers" d=" M 201.7476864965625 694.4206944007286 L 189.1821454965625 700.7034649007286 L 201.7476864965625 706.9862354007286 Z"/></g></g><g><g><rect fill="white" stroke="none" x="282.0418915730078" y="723.3214387007285" width="157.53394021898438" height="19.602243960000003"/></g><text fill="black" stroke="none" font-family="sans-serif" font-size="11pt" font-style="normal" font-weight="normal" text-decoration="normal" x="284.3036889530078" y="736.8922229807285" text-anchor="start" dominant-baseline="alphabetic" xml:space="preserve">Wypchnij zatwierdzenie</text></g><g><path fill="none" stroke="black" paint-order="fill stroke markers" d=" M 189.1821454965625 742.9236826607286 L 520.0208233604375 742.9236826607286" stroke-miterlimit="10" stroke-width="1.2565541" stroke-dasharray=""/><g transform="translate(532.4355778684375,742.9236826607286) translate(-532.4355778684375,-742.9236826607286)"><path fill="black" stroke="none" paint-order="stroke fill markers" d=" M 519.8700368684374 736.6409121607286 L 532.4355778684375 742.9236826607286 L 519.8700368684374 749.2064531607285 Z"/></g></g><g><g><rect fill="white" stroke="none" x="1119.899774001328" y="765.5416564607285" width="170.55853738695313" height="19.602243960000003"/></g><text fill="black" stroke="none" font-family="sans-serif" font-size="11pt" font-style="normal" font-weight="normal" text-decoration="normal" x="1122.161571381328" y="779.1124407407285" text-anchor="start" dominant-baseline="alphabetic" xml:space="preserve">Wypycham zatwierdzenie</text></g><g><path fill="none" stroke="black" paint-order="fill stroke markers" d=" M 547.5142270684374 771.9686392349022 L 1850.4323655777935 801.841372396381" stroke-miterlimit="10" stroke-width="1.2565541" stroke-dasharray=""/><g transform="translate(1862.8438583211716,802.1259376349022) rotate(1.313422283355399,0,0) translate(-1862.8438583211716,-802.1259376349022)"><path fill="black" stroke="none" paint-order="stroke fill markers" d=" M 1850.2783173211717 795.8431671349023 L 1862.8438583211716 802.1259376349022 L 1850.2783173211717 808.4087081349022 Z"/><g transform="rotate(-1.313422283355399,0,0)"/></g></g><g><g><rect fill="white" stroke="none" x="1119.1072262183204" y="824.7439114349022" width="179.68295755296876" height="19.602243960000003"/></g><text fill="black" stroke="none" font-family="sans-serif" font-size="11pt" font-style="normal" font-weight="normal" text-decoration="normal" x="1121.3690235983204" y="838.3146957149022" text-anchor="start" dominant-baseline="alphabetic" xml:space="preserve">Potrzebne uwierzytelnienie</text></g><g><path fill="none" stroke="black" paint-order="fill stroke markers" d=" M 1870.3831829211717 831.2640505797149 L 559.9257568704717 861.1384046969993" stroke-miterlimit="10" stroke-width="1.2565541" stroke-dasharray=""/><g transform="translate(547.5142270684374,861.4213489797148) rotate(-1.3059393971645106,0,0) translate(-547.5142270684374,-861.4213489797148)"><path fill="black" stroke="none" paint-order="stroke fill markers" d=" M 560.0797680684375 855.1385784797149 L 547.5142270684374 861.4213489797148 L 560.0797680684375 867.7041194797148 Z"/><g transform="rotate(1.3059393971645106,0,0)"/></g></g><g><g><rect fill="white" stroke="none" x="233.08870553785155" y="884.0393227797148" width="255.44031228929688" height="19.602243960000003"/></g><text fill="black" stroke="none" font-family="sans-serif" font-size="11pt" font-style="normal" font-weight="normal" text-decoration="normal" x="235.35050291785154" y="897.6101070597148" text-anchor="start" dominant-baseline="alphabetic" xml:space="preserve">Podaj identyfikator użytkownika i hasło</text></g><g><path fill="none" stroke="black" paint-order="fill stroke markers" d=" M 532.4355778684375 903.6415667397148 L 201.59690000456249 903.6415667397148" stroke-miterlimit="10" stroke-width="1.2565541" stroke-dasharray=""/><g transform="translate(189.1821454965625,903.6415667397148) translate(-189.1821454965625,-903.6415667397148)"><path fill="black" stroke="none" paint-order="stroke fill markers" d=" M 201.7476864965625 897.3587962397148 L 189.1821454965625 903.6415667397148 L 201.7476864965625 909.9243372397148 Z"/></g></g><g><g><rect fill="white" stroke="none" x="295.4028153400976" y="926.2595405397147" width="130.8120926848047" height="19.602243960000003"/></g><text fill="black" stroke="none" font-family="sans-serif" font-size="11pt" font-style="italic" font-weight="normal" text-decoration="normal" x="297.66461272009764" y="939.8303248197147" text-anchor="start" dominant-baseline="alphabetic" xml:space="preserve">manager:admin123</text></g><g><path fill="none" stroke="black" paint-order="fill stroke markers" d=" M 189.1821454965625 945.8617844997148 L 520.0208233604375 945.8617844997148" stroke-miterlimit="10" stroke-width="1.2565541" stroke-dasharray="6.03145968"/><g transform="translate(532.4355778684375,945.8617844997148) translate(-532.4355778684375,-945.8617844997148)"><path fill="black" stroke="none" paint-order="stroke fill markers" d=" M 519.8700368684374 939.5790139997148 L 532.4355778684375 945.8617844997148 L 519.8700368684374 952.1445549997147 Z"/></g></g><path fill="white" stroke="black" paint-order="fill stroke markers" d=" M 349.95523118874996 968.4797582997148 L 729.9945737481249 968.4797582997148 L 743.5653580281249 985.8202048797148 L 729.9945737481249 1003.1606514597148 L 349.95523118874996 1003.1606514597148 L 336.38444690874996 985.8202048797148 L 349.95523118874996 968.4797582997148" stroke-miterlimit="10" stroke-width="1.2565541" stroke-dasharray=""/><g><text fill="black" stroke="none" font-family="sans-serif" font-size="11pt" font-style="normal" font-weight="normal" text-decoration="normal" x="357.49455578874995" y="989.5898671797148" text-anchor="start" dominant-baseline="alphabetic" xml:space="preserve">Zapisałem dane uwierzytelniające w pamięci podręcznej</text></g><g><g><rect fill="white" stroke="none" x="955.9205807105079" y="1025.7786252597148" width="506.05624856859373" height="19.602243960000003"/></g><text fill="black" stroke="none" font-family="sans-serif" font-size="11pt" font-style="italic" font-weight="normal" text-decoration="normal" x="958.1823780905079" y="1039.3494095397148" text-anchor="start" dominant-baseline="alphabetic" xml:space="preserve">a77949a2aad251115b42010a6af0e32f4915bd2e9f1347ca257ecf4364246955</text></g><g><path fill="none" stroke="black" paint-order="fill stroke markers" d=" M 547.5142270684374 1036.0189124522242 L 1857.9716531191375 1065.8932665695086" stroke-miterlimit="10" stroke-width="1.2565541" stroke-dasharray="6.03145968"/><g transform="translate(1870.3831829211717,1066.1762108522241) rotate(1.3059393971645106,0,0) translate(-1870.3831829211717,-1066.1762108522241)"><path fill="black" stroke="none" paint-order="stroke fill markers" d=" M 1857.8176419211718 1059.8934403522242 L 1870.3831829211717 1066.1762108522241 L 1857.8176419211718 1072.458981352224 Z"/><g transform="rotate(-1.3059393971645106,0,0)"/></g></g><g><g><rect fill="white" stroke="none" x="1110.96685298834" y="1088.794184652224" width="195.9637040129297" height="19.602243960000003"/></g><text fill="black" stroke="none" font-family="sans-serif" font-size="11pt" font-style="normal" font-weight="normal" text-decoration="normal" x="1113.22865036834" y="1102.364968932224" text-anchor="start" dominant-baseline="alphabetic" xml:space="preserve">Uwierzytelnianie powiodło się</text></g><g><path fill="none" stroke="black" paint-order="fill stroke markers" d=" M 1870.3831829211717 1095.4998989921442 L 559.9257568704717 1125.3742531094285" stroke-miterlimit="10" stroke-width="1.2565541" stroke-dasharray=""/><g transform="translate(547.5142270684374,1125.657197392144) rotate(-1.3059393971645106,0,0) translate(-547.5142270684374,-1125.657197392144)"><path fill="black" stroke="none" paint-order="stroke fill markers" d=" M 560.0797680684375 1119.3744268921441 L 547.5142270684374 1125.657197392144 L 560.0797680684375 1131.939967892144 Z"/><g transform="rotate(1.3059393971645106,0,0)"/></g></g><g><g><rect fill="white" stroke="none" x="1071.7660001976171" y="1148.2751711921442" width="266.826084994375" height="19.602243960000003"/></g><text fill="black" stroke="none" font-family="sans-serif" font-size="11pt" font-style="normal" font-weight="normal" text-decoration="normal" x="1074.027797577617" y="1161.8459554721442" text-anchor="start" dominant-baseline="alphabetic" xml:space="preserve">Potwierdzam wypchnięcie zatwierdzenia</text></g><g><path fill="none" stroke="black" paint-order="fill stroke markers" d=" M 1862.8438583211716 1155.8057439297966 L 559.9257198118157 1185.6784770912752" stroke-miterlimit="10" stroke-width="1.2565541" stroke-dasharray="6.03145968"/><g transform="translate(547.5142270684374,1185.9630423297965) rotate(-1.313422283355399,0,0) translate(-547.5142270684374,-1185.9630423297965)"><path fill="black" stroke="none" paint-order="stroke fill markers" d=" M 560.0797680684375 1179.6802718297965 L 547.5142270684374 1185.9630423297965 L 560.0797680684375 1192.2458128297965 Z"/><g transform="rotate(1.313422283355399,0,0)"/></g></g><g><g><rect fill="white" stroke="none" x="228.61240243726562" y="1208.5810161297966" width="264.39291849046873" height="19.602243960000003"/></g><text fill="black" stroke="none" font-family="sans-serif" font-size="11pt" font-style="normal" font-weight="normal" text-decoration="normal" x="230.8741998172656" y="1222.1518004097966" text-anchor="start" dominant-baseline="alphabetic" xml:space="preserve">Sukcesywne wypchnięcie zatwierdzenia</text></g><g><path fill="none" stroke="black" paint-order="fill stroke markers" d=" M 532.4355778684375 1228.1832600897965 L 201.59690000456249 1228.1832600897965" stroke-miterlimit="10" stroke-width="1.2565541" stroke-dasharray="6.03145968"/><g transform="translate(189.1821454965625,1228.1832600897965) translate(-189.1821454965625,-1228.1832600897965)"><path fill="black" stroke="none" paint-order="stroke fill markers" d=" M 201.7476864965625 1221.9004895897965 L 189.1821454965625 1228.1832600897965 L 201.7476864965625 1234.4660305897964 Z"/></g></g><path fill="none" stroke="black" paint-order="fill stroke markers" d=" M 7.5393246000000005 1263.1154640697964 L 1953.4606754 1263.1154640697964 M 7.5393246000000005 1268.1416804697965 L 1953.4606754 1268.1416804697965 M 7.5393246000000005 1273.1678968697966 L 1953.4606754 1273.1678968697966" stroke-miterlimit="10" stroke-width="1.2565541" stroke-dasharray=""/><path fill="white" stroke="black" paint-order="fill stroke markers" d=" M 759.855940314336 1250.8012338897963 L 1201.1440596856642 1250.8012338897963 L 1201.1440596856642 1285.4821270497964 L 759.855940314336 1285.4821270497964 Z" stroke-miterlimit="10" stroke-width="1.2565541" stroke-dasharray=""/><g><text fill="black" stroke="none" font-family="sans-serif" font-size="11pt" font-style="normal" font-weight="normal" text-decoration="normal" x="780.9660491943359" y="1271.9113427697964" text-anchor="start" dominant-baseline="alphabetic" xml:space="preserve"> </text><text fill="black" stroke="none" font-family="sans-serif" font-size="11pt" font-style="normal" font-weight="bold" text-decoration="normal" x="785.0380249023438" y="1271.9113427697964" text-anchor="start" dominant-baseline="alphabetic" xml:space="preserve">Utowrzenie środowiska programistycznego programisty</text><text fill="black" stroke="none" font-family="sans-serif" font-size="11pt" font-style="normal" font-weight="normal" text-decoration="normal" x="1175.9619750976562" y="1271.9113427697964" text-anchor="start" dominant-baseline="alphabetic" xml:space="preserve"> </text></g><g><g><rect fill="white" stroke="none" x="904.9071659621679" y="1308.1001008497963" width="249.75099649339845" height="19.602243960000003"/></g><text fill="black" stroke="none" font-family="sans-serif" font-size="11pt" font-style="normal" font-weight="normal" text-decoration="normal" x="907.1689633421679" y="1321.6708851297963" text-anchor="start" dominant-baseline="alphabetic" xml:space="preserve">Dodaj mojego pracownika do projektu</text></g><g><path fill="none" stroke="black" paint-order="fill stroke markers" d=" M 189.1821454965625 1314.82313391768 L 1857.9704252791448 1344.7577729046504" stroke-miterlimit="10" stroke-width="1.2565541" stroke-dasharray=""/><g transform="translate(1870.3831829211717,1344.98043231768) rotate(1.0276585547217683,0,0) translate(-1870.3831829211717,-1344.98043231768)"><path fill="black" stroke="none" paint-order="stroke fill markers" d=" M 1857.8176419211718 1338.69766181768 L 1870.3831829211717 1344.98043231768 L 1857.8176419211718 1351.26320281768 Z"/><g transform="rotate(-1.0276585547217683,0,0)"/></g></g><g><g><rect fill="white" stroke="none" x="978.2456669387304" y="1367.5984061176798" width="103.07399454027343" height="19.602243960000003"/></g><text fill="black" stroke="none" font-family="sans-serif" font-size="11pt" font-style="normal" font-weight="normal" text-decoration="normal" x="980.5074643187304" y="1381.1691903976798" text-anchor="start" dominant-baseline="alphabetic" xml:space="preserve">Dwieście - okej</text></g><g><path fill="none" stroke="black" paint-order="fill stroke markers" d=" M 1870.3831829211717 1373.005896898279 L 201.59490313858933 1402.9405358852493" stroke-miterlimit="10" stroke-width="1.2565541" stroke-dasharray="6.03145968"/><g transform="translate(189.1821454965625,1403.1631952982789) rotate(-1.0276585547217683,0,0) translate(-189.1821454965625,-1403.1631952982789)"><path fill="black" stroke="none" paint-order="stroke fill markers" d=" M 201.7476864965625 1396.880424798279 L 189.1821454965625 1403.1631952982789 L 201.7476864965625 1409.4459657982788 Z"/><g transform="rotate(1.0276585547217683,0,0)"/></g></g><g><g><rect fill="white" stroke="none" x="408.5052996688085" y="1425.781169098279" width="175.59666910082032" height="19.602243960000003"/></g><text fill="black" stroke="none" font-family="sans-serif" font-size="11pt" font-style="normal" font-weight="normal" text-decoration="normal" x="410.7670970488085" y="1439.351953378279" text-anchor="start" dominant-baseline="alphabetic" xml:space="preserve">Pobierz nasz nowy projekt</text></g><g><path fill="none" stroke="black" paint-order="fill stroke markers" d=" M 189.1821454965625 1445.3834130582788 L 791.0103684338749 1445.3834130582788" stroke-miterlimit="10" stroke-width="1.2565541" stroke-dasharray=""/><g transform="translate(803.4251229418749,1445.3834130582788) translate(-803.4251229418749,-1445.3834130582788)"><path fill="black" stroke="none" paint-order="stroke fill markers" d=" M 790.8595819418748 1439.1006425582789 L 803.4251229418749 1445.3834130582788 L 790.8595819418748 1451.6661835582788 Z"/></g></g><g><g><rect fill="white" stroke="none" x="968.2851207883398" y="1468.001386858279" width="180.5059403410547" height="19.602243960000003"/></g><text fill="black" stroke="none" font-family="sans-serif" font-size="11pt" font-style="normal" font-weight="normal" text-decoration="normal" x="970.5469181683397" y="1481.572171138279" text-anchor="start" dominant-baseline="alphabetic" xml:space="preserve">Sklonuj odległe repozytoriu</text></g><g><path fill="none" stroke="black" paint-order="fill stroke markers" d=" M 803.4251229418749 1487.6036308182788 L 1301.236304467859 1487.6036308182788" stroke-miterlimit="10" stroke-width="1.2565541" stroke-dasharray=""/><g transform="translate(1313.651058975859,1487.6036308182788) translate(-1313.651058975859,-1487.6036308182788)"><path fill="black" stroke="none" paint-order="stroke fill markers" d=" M 1301.0855179758591 1481.3208603182788 L 1313.651058975859 1487.6036308182788 L 1301.0855179758591 1493.8864013182788 Z"/></g></g><g><g><rect fill="white" stroke="none" x="1524.6878429241794" y="1510.221604618279" width="142.19788064867188" height="19.602243960000003"/></g><text fill="black" stroke="none" font-family="sans-serif" font-size="11pt" font-style="normal" font-weight="normal" text-decoration="normal" x="1526.9496403041794" y="1523.792388898279" text-anchor="start" dominant-baseline="alphabetic" xml:space="preserve">Klonuje repozytorium</text></g><g><path fill="none" stroke="black" paint-order="fill stroke markers" d=" M 1328.7297081758593 1518.6319008637404 L 1850.4488456682461 1548.0893486884572" stroke-miterlimit="10" stroke-width="1.2565541" stroke-dasharray=""/><g transform="translate(1862.8438583211716,1548.7891992637403) rotate(3.2316186785815124,0,0) translate(-1862.8438583211716,-1548.7891992637403)"><path fill="black" stroke="none" paint-order="stroke fill markers" d=" M 1850.2783173211717 1542.5064287637404 L 1862.8438583211716 1548.7891992637403 L 1850.2783173211717 1555.0719697637403 Z"/><g transform="rotate(-3.2316186785815124,0,0)"/></g></g><g><g><rect fill="white" stroke="none" x="1509.7149667720312" y="1571.4071730637402" width="179.68295755296876" height="19.602243960000003"/></g><text fill="black" stroke="none" font-family="sans-serif" font-size="11pt" font-style="normal" font-weight="normal" text-decoration="normal" x="1511.9767641520311" y="1584.9779573437402" text-anchor="start" dominant-baseline="alphabetic" xml:space="preserve">Potrzebne uwierzytelnienie</text></g><g><path fill="none" stroke="black" paint-order="fill stroke markers" d=" M 1870.3831829211717 1580.8068864287075 L 1341.1252653161607 1610.2740452229566" stroke-miterlimit="10" stroke-width="1.2565541" stroke-dasharray=""/><g transform="translate(1328.7297081758593,1610.9641848287074) rotate(-3.186730840556068,0,0) translate(-1328.7297081758593,-1610.9641848287074)"><path fill="black" stroke="none" paint-order="stroke fill markers" d=" M 1341.2952491758592 1604.6814143287074 L 1328.7297081758593 1610.9641848287074 L 1341.2952491758592 1617.2469553287074 Z"/><g transform="rotate(3.186730840556068,0,0)"/></g></g><g><g><rect fill="white" stroke="none" x="930.8179348142187" y="1633.5821586287075" width="255.44031228929688" height="19.602243960000003"/></g><text fill="black" stroke="none" font-family="sans-serif" font-size="11pt" font-style="normal" font-weight="normal" text-decoration="normal" x="933.0797321942186" y="1647.1529429087075" text-anchor="start" dominant-baseline="alphabetic" xml:space="preserve">Podaj identyfikator użytkownika i hasło</text></g><g><path fill="none" stroke="black" paint-order="fill stroke markers" d=" M 1313.651058975859 1653.1844025887074 L 815.8398774498748 1653.1844025887074" stroke-miterlimit="10" stroke-width="1.2565541" stroke-dasharray=""/><g transform="translate(803.4251229418749,1653.1844025887074) translate(-803.4251229418749,-1653.1844025887074)"><path fill="black" stroke="none" paint-order="stroke fill markers" d=" M 815.9906639418749 1646.9016320887074 L 803.4251229418749 1653.1844025887074 L 815.9906639418749 1659.4671730887073 Z"/></g></g><g><g><rect fill="white" stroke="none" x="970.7504909665624" y="1675.8023763887074" width="175.57519998460938" height="19.602243960000003"/></g><text fill="black" stroke="none" font-family="sans-serif" font-size="11pt" font-style="italic" font-weight="normal" text-decoration="normal" x="973.0122883465624" y="1689.3731606687074" text-anchor="start" dominant-baseline="alphabetic" xml:space="preserve">koder:UmiemWkodowanie</text></g><g><path fill="none" stroke="black" paint-order="fill stroke markers" d=" M 803.4251229418749 1695.4046203487073 L 1301.236304467859 1695.4046203487073" stroke-miterlimit="10" stroke-width="1.2565541" stroke-dasharray="6.03145968"/><g transform="translate(1313.651058975859,1695.4046203487073) translate(-1313.651058975859,-1695.4046203487073)"><path fill="black" stroke="none" paint-order="stroke fill markers" d=" M 1301.0855179758591 1689.1218498487074 L 1313.651058975859 1695.4046203487073 L 1301.0855179758591 1701.6873908487073 Z"/></g></g><path fill="white" stroke="black" paint-order="fill stroke markers" d=" M 1133.1995514075 1718.0225941487072 L 1509.1812157442187 1718.0225941487072 L 1522.7520000242187 1735.3630407287073 L 1509.1812157442187 1752.7034873087073 L 1133.1995514075 1752.7034873087073 L 1119.6287671275 1735.3630407287073 L 1133.1995514075 1718.0225941487072" stroke-miterlimit="10" stroke-width="1.2565541" stroke-dasharray=""/><g><text fill="black" stroke="none" font-family="sans-serif" font-size="11pt" font-style="normal" font-weight="normal" text-decoration="normal" x="1140.7388760074998" y="1739.1327030287073" text-anchor="start" dominant-baseline="alphabetic" xml:space="preserve">Zapisanie dane uwierzytelniające w pamięci podręcznej</text></g><g><g><rect fill="white" stroke="none" x="1350.3424386958593" y="1775.3214611087071" width="498.4280137053125" height="19.602243960000003"/></g><text fill="black" stroke="none" font-family="sans-serif" font-size="11pt" font-style="italic" font-weight="normal" text-decoration="normal" x="1352.6042360758593" y="1788.8922453887071" text-anchor="start" dominant-baseline="alphabetic" xml:space="preserve">e95e4585765a8d071b4cf157221db88e9578c469f51e3c9f9f45a72d2a8dcff7</text></g><g><path fill="none" stroke="black" paint-order="fill stroke markers" d=" M 1328.7297081758593 1793.5944580581938 L 1857.9876257808703 1823.061616852443" stroke-miterlimit="10" stroke-width="1.2565541" stroke-dasharray=""/><g transform="translate(1870.3831829211717,1823.7517564581938) rotate(3.186730840556068,0,0) translate(-1870.3831829211717,-1823.7517564581938)"><path fill="black" stroke="none" paint-order="stroke fill markers" d=" M 1857.8176419211718 1817.4689859581938 L 1870.3831829211717 1823.7517564581938 L 1857.8176419211718 1830.0345269581937 Z"/><g transform="rotate(-3.186730840556068,0,0)"/></g></g><g><g><rect fill="white" stroke="none" x="1501.5745935420507" y="1846.3697302581938" width="195.9637040129297" height="19.602243960000003"/></g><text fill="black" stroke="none" font-family="sans-serif" font-size="11pt" font-style="normal" font-weight="normal" text-decoration="normal" x="1503.8363909220507" y="1859.9405145381938" text-anchor="start" dominant-baseline="alphabetic" xml:space="preserve">Uwierzytelnianie powiodło się</text></g><g><path fill="none" stroke="black" paint-order="fill stroke markers" d=" M 1870.3831829211717 1856.2226700419508 L 1341.1252653161607 1885.6898288362" stroke-miterlimit="10" stroke-width="1.2565541" stroke-dasharray="6.03145968"/><g transform="translate(1328.7297081758593,1886.3799684419507) rotate(-3.186730840556068,0,0) translate(-1328.7297081758593,-1886.3799684419507)"><path fill="black" stroke="none" paint-order="stroke fill markers" d=" M 1341.2952491758592 1880.0971979419508 L 1328.7297081758593 1886.3799684419507 L 1341.2952491758592 1892.6627389419507 Z"/><g transform="rotate(3.186730840556068,0,0)"/></g></g><g><g><rect fill="white" stroke="none" x="1529.9978710003513" y="1946.854518101245" width="131.57782449632813" height="19.602243960000003"/></g><text fill="black" stroke="none" font-family="sans-serif" font-size="11pt" font-style="normal" font-weight="normal" text-decoration="normal" x="1532.2596683803513" y="1960.425302381245" text-anchor="start" dominant-baseline="alphabetic" xml:space="preserve">Pliki z repozytorium</text></g><g><path fill="none" stroke="black" paint-order="fill stroke markers" d=" M 1862.8438583211716 1908.9979422419508 L 1340.6774724363245 2056.4114446673657" stroke-miterlimit="10" stroke-width="1.2565541" stroke-dasharray="6.03145968"/><g transform="translate(1328.7297081758593,2059.7844342419507) rotate(-15.764975990805498,0,0) translate(-1328.7297081758593,-2059.7844342419507)"><path fill="black" stroke="none" paint-order="stroke fill markers" d=" M 1341.2952491758592 2053.501663741951 L 1328.7297081758593 2059.7844342419507 L 1341.2952491758592 2066.0672047419507 Z"/><g transform="rotate(15.764975990805498,0,0)"/></g></g><g><g><rect fill="white" stroke="none" x="928.3811901242773" y="2082.402408041951" width="260.31380166917967" height="19.602243960000003"/></g><text fill="black" stroke="none" font-family="sans-serif" font-size="11pt" font-style="normal" font-weight="normal" text-decoration="normal" x="930.6429875042772" y="2095.973192321951" text-anchor="start" dominant-baseline="alphabetic" xml:space="preserve">Sukcesywne sklonowanie repozytorium</text></g><g><path fill="none" stroke="black" paint-order="fill stroke markers" d=" M 1313.651058975859 2102.004652001951 L 815.8398774498748 2102.004652001951" stroke-miterlimit="10" stroke-width="1.2565541" stroke-dasharray="6.03145968"/><g transform="translate(803.4251229418749,2102.004652001951) translate(-803.4251229418749,-2102.004652001951)"><path fill="black" stroke="none" paint-order="stroke fill markers" d=" M 815.9906639418749 2095.721881501951 L 803.4251229418749 2102.004652001951 L 815.9906639418749 2108.287422501951 Z"/></g></g><g><g><rect fill="white" stroke="none" x="1004.6627924267186" y="2124.622625801951" width="115.28992166429687" height="19.602243960000003"/></g><text fill="black" stroke="none" font-family="sans-serif" font-size="11pt" font-style="normal" font-weight="normal" text-decoration="normal" x="1006.9245898067186" y="2138.1934100819512" text-anchor="start" dominant-baseline="alphabetic" xml:space="preserve">Otwieram projekt</text></g><g><path fill="none" stroke="black" paint-order="fill stroke markers" d=" M 1321.1903835758592 2144.224869761951 L 815.8398774498748 2144.224869761951" stroke-miterlimit="10" stroke-width="1.2565541" stroke-dasharray=""/><g transform="translate(803.4251229418749,2144.224869761951) translate(-803.4251229418749,-2144.224869761951)"><path fill="black" stroke="none" paint-order="stroke fill markers" d=" M 815.9906639418749 2137.942099261951 L 803.4251229418749 2144.224869761951 L 815.9906639418749 2150.507640261951 Z"/></g></g><g><g><rect fill="white" stroke="none" x="438.64793882896475" y="2166.842843561951" width="115.31139078050781" height="19.602243960000003"/></g><text fill="black" stroke="none" font-family="sans-serif" font-size="11pt" font-style="normal" font-weight="normal" text-decoration="normal" x="440.9097362089648" y="2180.4136278419514" text-anchor="start" dominant-baseline="alphabetic" xml:space="preserve">Pobrałem projekt</text></g><g><path fill="none" stroke="black" paint-order="fill stroke markers" d=" M 803.4251229418749 2186.4450875219513 L 201.59690000456249 2186.4450875219513" stroke-miterlimit="10" stroke-width="1.2565541" stroke-dasharray="6.03145968"/><g transform="translate(189.1821454965625,2186.4450875219513) translate(-189.1821454965625,-2186.4450875219513)"><path fill="black" stroke="none" paint-order="stroke fill markers" d=" M 201.7476864965625 2180.1623170219514 L 189.1821454965625 2186.4450875219513 L 201.7476864965625 2192.7278580219513 Z"/></g></g><g><g><rect fill="white" stroke="none" x="258.23580656578116" y="2209.0630613219514" width="476.135655306875" height="19.602243960000003"/></g><text fill="black" stroke="none" font-family="sans-serif" font-size="11pt" font-style="normal" font-weight="normal" text-decoration="normal" x="260.4976039457812" y="2222.6338456019516" text-anchor="start" dominant-baseline="alphabetic" xml:space="preserve">Utwórz swoją gałąź i zacznij pracę nad nowościami przypisanymi w Jirze</text></g><g><path fill="none" stroke="black" paint-order="fill stroke markers" d=" M 189.1821454965625 2228.6653052819515 L 791.0103684338749 2228.6653052819515" stroke-miterlimit="10" stroke-width="1.2565541" stroke-dasharray=""/><g transform="translate(803.4251229418749,2228.6653052819515) translate(-803.4251229418749,-2228.6653052819515)"><path fill="black" stroke="none" paint-order="stroke fill markers" d=" M 790.8595819418748 2222.3825347819516 L 803.4251229418749 2228.6653052819515 L 790.8595819418748 2234.9480757819515 Z"/></g></g><path fill="none" stroke="black" paint-order="fill stroke markers" d=" M 7.5393246000000005 2263.5975092619515 L 1953.4606754 2263.5975092619515 M 7.5393246000000005 2268.6237256619515 L 1953.4606754 2268.6237256619515 M 7.5393246000000005 2273.6499420619516 L 1953.4606754 2273.6499420619516" stroke-miterlimit="10" stroke-width="1.2565541" stroke-dasharray=""/><path fill="white" stroke="black" paint-order="fill stroke markers" d=" M 831.9205918035938 2251.2832790819516 L 1129.0794081964063 2251.2832790819516 L 1129.0794081964063 2285.9641722419515 L 831.9205918035938 2285.9641722419515 Z" stroke-miterlimit="10" stroke-width="1.2565541" stroke-dasharray=""/><g><text fill="black" stroke="none" font-family="sans-serif" font-size="11pt" font-style="normal" font-weight="normal" text-decoration="normal" x="853.0307006835938" y="2272.3933879619517" text-anchor="start" dominant-baseline="alphabetic" xml:space="preserve"> </text><text fill="black" stroke="none" font-family="sans-serif" font-size="11pt" font-style="normal" font-weight="bold" text-decoration="normal" x="857.1026763916016" y="2272.3933879619517" text-anchor="start" dominant-baseline="alphabetic" xml:space="preserve">Praca programisty nad nowościami</text><text fill="black" stroke="none" font-family="sans-serif" font-size="11pt" font-style="normal" font-weight="normal" text-decoration="normal" x="1103.8973236083984" y="2272.3933879619517" text-anchor="start" dominant-baseline="alphabetic" xml:space="preserve"> </text></g><g><g><rect fill="white" stroke="none" x="860.0575601879491" y="2308.5821460419515" width="404.5003861418359" height="19.602243960000003"/></g><text fill="black" stroke="none" font-family="sans-serif" font-size="11pt" font-style="normal" font-weight="normal" text-decoration="normal" x="862.319357567949" y="2322.1529303219518" text-anchor="start" dominant-baseline="alphabetic" xml:space="preserve">Utwórz pobliską gałąź </text><text fill="black" stroke="none" font-family="sans-serif" font-size="11pt" font-style="italic" font-weight="normal" text-decoration="normal" x="1008.9462649165819" y="2322.1529303219518" text-anchor="start" dominant-baseline="alphabetic" xml:space="preserve">nowość/strona-logowania</text><text fill="black" stroke="none" font-family="sans-serif" font-size="11pt" font-style="normal" font-weight="normal" text-decoration="normal" x="1174.3300234615037" y="2322.1529303219518" text-anchor="start" dominant-baseline="alphabetic" xml:space="preserve"> i wymelduj ją</text></g><g><path fill="none" stroke="black" paint-order="fill stroke markers" d=" M 803.4251229418749 2328.1843900019517 L 1308.7756290678592 2328.1843900019517" stroke-miterlimit="10" stroke-width="1.2565541" stroke-dasharray=""/><g transform="translate(1321.1903835758592,2328.1843900019517) translate(-1321.1903835758592,-2328.1843900019517)"><path fill="black" stroke="none" paint-order="stroke fill markers" d=" M 1308.6248425758592 2321.9016195019517 L 1321.1903835758592 2328.1843900019517 L 1308.6248425758592 2334.4671605019516 Z"/></g></g><g><g><rect fill="white" stroke="none" x="825.0378534618749" y="2350.8023638019517" width="474.53979959398436" height="19.602243960000003"/></g><text fill="black" stroke="none" font-family="sans-serif" font-size="11pt" font-style="normal" font-weight="normal" text-decoration="normal" x="827.2996508418748" y="2364.373148081952" text-anchor="start" dominant-baseline="alphabetic" xml:space="preserve">Utwórzyłem pobliską gałąź </text><text fill="black" stroke="none" font-family="sans-serif" font-size="11pt" font-style="italic" font-weight="normal" text-decoration="normal" x="1004.8707110225389" y="2364.373148081952" text-anchor="start" dominant-baseline="alphabetic" xml:space="preserve">nowość/strona-logowania</text><text fill="black" stroke="none" font-family="sans-serif" font-size="11pt" font-style="normal" font-weight="normal" text-decoration="normal" x="1170.2544695674608" y="2364.373148081952" text-anchor="start" dominant-baseline="alphabetic" xml:space="preserve"> i wymeldowałem ją</text></g><g><path fill="none" stroke="black" paint-order="fill stroke markers" d=" M 1321.1903835758592 2370.404607761952 L 815.8398774498748 2370.404607761952" stroke-miterlimit="10" stroke-width="1.2565541" stroke-dasharray="6.03145968"/><g transform="translate(803.4251229418749,2370.404607761952) translate(-803.4251229418749,-2370.404607761952)"><path fill="black" stroke="none" paint-order="stroke fill markers" d=" M 815.9906639418749 2364.121837261952 L 803.4251229418749 2370.404607761952 L 815.9906639418749 2376.687378261952 Z"/></g></g><g><g><rect fill="white" stroke="none" x="969.6359293285741" y="2393.022581561952" width="185.34364786058595" height="19.602243960000003"/></g><text fill="black" stroke="none" font-family="sans-serif" font-size="11pt" font-style="normal" font-weight="normal" text-decoration="normal" x="971.897726708574" y="2406.593365841952" text-anchor="start" dominant-baseline="alphabetic" xml:space="preserve">Wprowadź zmiany w kodzie</text></g><g><path fill="none" stroke="black" paint-order="fill stroke markers" d=" M 803.4251229418749 2412.624825521952 L 1308.7756290678592 2412.624825521952" stroke-miterlimit="10" stroke-width="1.2565541" stroke-dasharray=""/><g transform="translate(1321.1903835758592,2412.624825521952) translate(-1321.1903835758592,-2412.624825521952)"><path fill="black" stroke="none" paint-order="stroke fill markers" d=" M 1308.6248425758592 2406.342055021952 L 1321.1903835758592 2412.624825521952 L 1308.6248425758592 2418.907596021952 Z"/></g></g><g><g><rect fill="white" stroke="none" x="986.7468149486913" y="2435.242799321952" width="151.12187662035157" height="19.602243960000003"/></g><text fill="black" stroke="none" font-family="sans-serif" font-size="11pt" font-style="normal" font-weight="normal" text-decoration="normal" x="989.0086123286912" y="2448.8135836019524" text-anchor="start" dominant-baseline="alphabetic" xml:space="preserve">Wprowadziłem zmiany</text></g><g><path fill="none" stroke="black" paint-order="fill stroke markers" d=" M 1321.1903835758592 2454.8450432819523 L 815.8398774498748 2454.8450432819523" stroke-miterlimit="10" stroke-width="1.2565541" stroke-dasharray="6.03145968"/><g transform="translate(803.4251229418749,2454.8450432819523) translate(-803.4251229418749,-2454.8450432819523)"><path fill="black" stroke="none" paint-order="stroke fill markers" d=" M 815.9906639418749 2448.5622727819523 L 803.4251229418749 2454.8450432819523 L 815.9906639418749 2461.127813781952 Z"/></g></g><g><g><rect fill="white" stroke="none" x="1003.0347177807225" y="2477.4630170819523" width="118.54607095628906" height="19.602243960000003"/></g><text fill="black" stroke="none" font-family="sans-serif" font-size="11pt" font-style="normal" font-weight="normal" text-decoration="normal" x="1005.2965151607225" y="2491.0338013619526" text-anchor="start" dominant-baseline="alphabetic" xml:space="preserve">Zatwierdź zmiany</text></g><g><path fill="none" stroke="black" paint-order="fill stroke markers" d=" M 803.4251229418749 2497.0652610419525 L 1308.7756290678592 2497.0652610419525" stroke-miterlimit="10" stroke-width="1.2565541" stroke-dasharray=""/><g transform="translate(1321.1903835758592,2497.0652610419525) translate(-1321.1903835758592,-2497.0652610419525)"><path fill="black" stroke="none" paint-order="stroke fill markers" d=" M 1308.6248425758592 2490.7824905419525 L 1321.1903835758592 2497.0652610419525 L 1308.6248425758592 2503.3480315419524 Z"/></g></g><g><g><rect fill="white" stroke="none" x="989.5986292187108" y="2519.6832348419525" width="145.4182480803125" height="19.602243960000003"/></g><text fill="black" stroke="none" font-family="sans-serif" font-size="11pt" font-style="normal" font-weight="normal" text-decoration="normal" x="991.8604265987108" y="2533.2540191219528" text-anchor="start" dominant-baseline="alphabetic" xml:space="preserve">Zatwierdziłem zmiany</text></g><g><path fill="none" stroke="black" paint-order="fill stroke markers" d=" M 1321.1903835758592 2539.2854788019526 L 815.8398774498748 2539.2854788019526" stroke-miterlimit="10" stroke-width="1.2565541" stroke-dasharray="6.03145968"/><g transform="translate(803.4251229418749,2539.2854788019526) translate(-803.4251229418749,-2539.2854788019526)"><path fill="black" stroke="none" paint-order="stroke fill markers" d=" M 815.9906639418749 2533.0027083019527 L 803.4251229418749 2539.2854788019526 L 815.9906639418749 2545.5682493019526 Z"/></g></g><g><g><rect fill="white" stroke="none" x="979.7711208493749" y="2561.9034526019527" width="157.53394021898438" height="19.602243960000003"/></g><text fill="black" stroke="none" font-family="sans-serif" font-size="11pt" font-style="normal" font-weight="normal" text-decoration="normal" x="982.0329182293749" y="2575.474236881953" text-anchor="start" dominant-baseline="alphabetic" xml:space="preserve">Wypchnij zatwierdzenie</text></g><g><path fill="none" stroke="black" paint-order="fill stroke markers" d=" M 803.4251229418749 2581.505696561953 L 1301.236304467859 2581.505696561953" stroke-miterlimit="10" stroke-width="1.2565541" stroke-dasharray=""/><g transform="translate(1313.651058975859,2581.505696561953) translate(-1313.651058975859,-2581.505696561953)"><path fill="black" stroke="none" paint-order="stroke fill markers" d=" M 1301.0855179758591 2575.222926061953 L 1313.651058975859 2581.505696561953 L 1301.0855179758591 2587.788467061953 Z"/></g></g><g><g><rect fill="white" stroke="none" x="1510.5075145550388" y="2604.123670361953" width="170.55853738695313" height="19.602243960000003"/></g><text fill="black" stroke="none" font-family="sans-serif" font-size="11pt" font-style="normal" font-weight="normal" text-decoration="normal" x="1512.7693119350388" y="2617.694454641953" text-anchor="start" dominant-baseline="alphabetic" xml:space="preserve">Wypycham zatwierdzenie</text></g><g><path fill="none" stroke="black" paint-order="fill stroke markers" d=" M 1328.7297081758593 2613.3346201641903 L 1850.4488456682461 2642.792067988907" stroke-miterlimit="10" stroke-width="1.2565541" stroke-dasharray=""/><g transform="translate(1862.8438583211716,2643.49191856419) rotate(3.2316186785815124,0,0) translate(-1862.8438583211716,-2643.49191856419)"><path fill="black" stroke="none" paint-order="stroke fill markers" d=" M 1850.2783173211717 2637.2091480641902 L 1862.8438583211716 2643.49191856419 L 1850.2783173211717 2649.77468906419 Z"/><g transform="rotate(-3.2316186785815124,0,0)"/></g></g><g><g><rect fill="white" stroke="none" x="1509.7149667720312" y="2666.1098923641903" width="179.68295755296876" height="19.602243960000003"/></g><text fill="black" stroke="none" font-family="sans-serif" font-size="11pt" font-style="normal" font-weight="normal" text-decoration="normal" x="1511.9767641520311" y="2679.6806766441905" text-anchor="start" dominant-baseline="alphabetic" xml:space="preserve">Potrzebne uwierzytelnienie</text></g><g><path fill="none" stroke="black" paint-order="fill stroke markers" d=" M 1870.3831829211717 2675.5096057291576 L 1341.1252653161607 2704.9767645234065" stroke-miterlimit="10" stroke-width="1.2565541" stroke-dasharray=""/><g transform="translate(1328.7297081758593,2705.6669041291575) rotate(-3.186730840556068,0,0) translate(-1328.7297081758593,-2705.6669041291575)"><path fill="black" stroke="none" paint-order="stroke fill markers" d=" M 1341.2952491758592 2699.3841336291575 L 1328.7297081758593 2705.6669041291575 L 1341.2952491758592 2711.9496746291575 Z"/><g transform="rotate(3.186730840556068,0,0)"/></g></g><path fill="white" stroke="black" paint-order="fill stroke markers" d=" M 1116.4966095129687 2728.2848779291576 L 1525.88415763875 2728.2848779291576 L 1539.45494191875 2745.6253245091575 L 1525.88415763875 2762.9657710891574 L 1116.4966095129687 2762.9657710891574 L 1102.9258252329687 2745.6253245091575 L 1116.4966095129687 2728.2848779291576" stroke-miterlimit="10" stroke-width="1.2565541" stroke-dasharray=""/><g><text fill="black" stroke="none" font-family="sans-serif" font-size="11pt" font-style="normal" font-weight="normal" text-decoration="normal" x="1124.0359341129686" y="2749.3949868091577" text-anchor="start" dominant-baseline="alphabetic" xml:space="preserve">Ładowanie danych uwierzytelniających z pamięci podręcznej</text></g><g><g><rect fill="white" stroke="none" x="1350.4748544673437" y="2785.583744889157" width="498.16318216234373" height="19.602243960000003"/></g><text fill="black" stroke="none" font-family="sans-serif" font-size="11pt" font-style="normal" font-weight="normal" text-decoration="normal" x="1352.7366518473436" y="2799.1545291691573" text-anchor="start" dominant-baseline="alphabetic" xml:space="preserve">e95e4585765a8d071b4cf157221db88e9578c469f51e3c9f9f45a72d2a8dcff7</text></g><g><path fill="none" stroke="black" paint-order="fill stroke markers" d=" M 1328.7297081758593 2803.84936940937 L 1857.9876257808703 2833.316528203619" stroke-miterlimit="10" stroke-width="1.2565541" stroke-dasharray=""/><g transform="translate(1870.3831829211717,2834.00666780937) rotate(3.186730840556068,0,0) translate(-1870.3831829211717,-2834.00666780937)"><path fill="black" stroke="none" paint-order="stroke fill markers" d=" M 1857.8176419211718 2827.72389730937 L 1870.3831829211717 2834.00666780937 L 1857.8176419211718 2840.28943830937 Z"/><g transform="rotate(-3.186730840556068,0,0)"/></g></g><g><g><rect fill="white" stroke="none" x="1501.5745935420507" y="2856.62464160937" width="195.9637040129297" height="19.602243960000003"/></g><text fill="black" stroke="none" font-family="sans-serif" font-size="11pt" font-style="normal" font-weight="normal" text-decoration="normal" x="1503.8363909220507" y="2870.19542588937" text-anchor="start" dominant-baseline="alphabetic" xml:space="preserve">Uwierzytelnianie powiodło się</text></g><g><path fill="none" stroke="black" paint-order="fill stroke markers" d=" M 1870.3831829211717 2866.477581393127 L 1341.1252653161607 2895.944740187376" stroke-miterlimit="10" stroke-width="1.2565541" stroke-dasharray="6.03145968"/><g transform="translate(1328.7297081758593,2896.634879793127) rotate(-3.186730840556068,0,0) translate(-1328.7297081758593,-2896.634879793127)"><path fill="black" stroke="none" paint-order="stroke fill markers" d=" M 1341.2952491758592 2890.352109293127 L 1328.7297081758593 2896.634879793127 L 1341.2952491758592 2902.917650293127 Z"/><g transform="rotate(3.186730840556068,0,0)"/></g></g><g><g><rect fill="white" stroke="none" x="1462.373740751328" y="2919.252853593127" width="266.826084994375" height="19.602243960000003"/></g><text fill="black" stroke="none" font-family="sans-serif" font-size="11pt" font-style="normal" font-weight="normal" text-decoration="normal" x="1464.6355381313278" y="2932.823637873127" text-anchor="start" dominant-baseline="alphabetic" xml:space="preserve">Potwierdzam wypchnięcie zatwierdzenia</text></g><g><path fill="none" stroke="black" paint-order="fill stroke markers" d=" M 1862.8438583211716 2931.1815456220434 L 1341.1247208287848 2960.63899344676" stroke-miterlimit="10" stroke-width="1.2565541" stroke-dasharray="6.03145968"/><g transform="translate(1328.7297081758593,2961.3388440220433) rotate(-3.2316186785815124,0,0) translate(-1328.7297081758593,-2961.3388440220433)"><path fill="black" stroke="none" paint-order="stroke fill markers" d=" M 1341.2952491758592 2955.0560735220433 L 1328.7297081758593 2961.3388440220433 L 1341.2952491758592 2967.6216145220433 Z"/><g transform="rotate(3.2316186785815124,0,0)"/></g></g><g><g><rect fill="white" stroke="none" x="926.3416317136328" y="2983.9568178220434" width="264.39291849046873" height="19.602243960000003"/></g><text fill="black" stroke="none" font-family="sans-serif" font-size="11pt" font-style="normal" font-weight="normal" text-decoration="normal" x="928.6034290936327" y="2997.5276021020436" text-anchor="start" dominant-baseline="alphabetic" xml:space="preserve">Sukcesywne wypchnięcie zatwierdzenia</text></g><g><path fill="none" stroke="black" paint-order="fill stroke markers" d=" M 1313.651058975859 3003.5590617820435 L 815.8398774498748 3003.5590617820435" stroke-miterlimit="10" stroke-width="1.2565541" stroke-dasharray="6.03145968"/><g transform="translate(803.4251229418749,3003.5590617820435) translate(-803.4251229418749,-3003.5590617820435)"><path fill="black" stroke="none" paint-order="stroke fill markers" d=" M 815.9906639418749 2997.2762912820435 L 803.4251229418749 3003.5590617820435 L 815.9906639418749 3009.8418322820435 Z"/></g></g><g><g><rect fill="white" stroke="none" x="332.34002409507804" y="3026.1770355820436" width="327.92722024828123" height="19.602243960000003"/></g><text fill="black" stroke="none" font-family="sans-serif" font-size="11pt" font-style="normal" font-weight="normal" text-decoration="normal" x="334.60182147507805" y="3039.747819862044" text-anchor="start" dominant-baseline="alphabetic" xml:space="preserve">Zaimplementowałem nowość, poproszę o wypłatę</text></g><g><path fill="none" stroke="black" paint-order="fill stroke markers" d=" M 803.4251229418749 3045.7792795420437 L 201.59690000456249 3045.7792795420437" stroke-miterlimit="10" stroke-width="1.2565541" stroke-dasharray=""/><g transform="translate(189.1821454965625,3045.7792795420437) translate(-189.1821454965625,-3045.7792795420437)"><path fill="black" stroke="none" paint-order="stroke fill markers" d=" M 201.7476864965625 3039.4965090420437 L 189.1821454965625 3045.7792795420437 L 201.7476864965625 3052.0620500420437 Z"/></g></g><g><g><rect fill="white" stroke="none" x="445.57530699302725" y="3068.3972533420438" width="101.45665445238281" height="19.602243960000003"/></g><text fill="black" stroke="none" font-family="sans-serif" font-size="11pt" font-style="normal" font-weight="normal" text-decoration="normal" x="447.8371043730273" y="3081.968037622044" text-anchor="start" dominant-baseline="alphabetic" xml:space="preserve">Przesyłam </text><text fill="black" stroke="none" font-family="sans-serif" font-size="11pt" font-style="normal" font-weight="bold" text-decoration="normal" x="520.3168407011523" y="3081.968037622044" text-anchor="start" dominant-baseline="alphabetic" xml:space="preserve">15k</text></g><g><path fill="none" stroke="black" paint-order="fill stroke markers" d=" M 189.1821454965625 3087.999497302044 L 791.0103684338749 3087.999497302044" stroke-miterlimit="10" stroke-width="1.2565541" stroke-dasharray="6.03145968"/><g transform="translate(803.4251229418749,3087.999497302044) translate(-803.4251229418749,-3087.999497302044)"><path fill="black" stroke="none" paint-order="stroke fill markers" d=" M 790.8595819418748 3081.716726802044 L 803.4251229418749 3087.999497302044 L 790.8595819418748 3094.282267802044 Z"/></g></g></g><g/><g/><g/></g></svg>